HIERARCHY
ROOT Hips
{
  OFFSET -169.661 97.8281 -227.267
  CHANNELS 6 Xposition Yposition Zposition Zrotation Xrotation Yrotation
  JOINT RightUpLeg
  {
    OFFSET -8.9458 -8.66707 0.101652
    CHANNELS 3 Zrotation Xrotation Yrotation
    JOINT RightLeg
    {
      OFFSET 0 -44.4227 1.3727
      CHANNELS 3 Zrotation Xrotation Yrotation
      JOINT RightFoot
      {
        OFFSET 0.253549 -42.0924 -1.46059
        CHANNELS 3 Zrotation Xrotation Yrotation
        JOINT RightToes
        {
          OFFSET 0.04 -4.41509 8.4991
          CHANNELS 3 Zrotation Xrotation Yrotation
          End Site
          {
            OFFSET -0.08 -0.137448 9.77979
          }
        }
      }
    }
  }
  JOINT Spine
  {
    OFFSET 0 11.8905 0
    CHANNELS 3 Zrotation Xrotation Yrotation
    JOINT Spine1
    {
      OFFSET 0 25.6574 0.127663
      CHANNELS 3 Zrotation Xrotation Yrotation
      JOINT HEad
      {
        OFFSET 0 8.73416 0.011341
        CHANNELS 3 Zrotation Xrotation Yrotation
        End Site
        {
          OFFSET -0.29 12.7742 2.51395
        }
      }
      JOINT LeftShoulder1
      {
        OFFSET 8.99 -0.362252 -0.22
        CHANNELS 3 Zrotation Xrotation Yrotation
        JOINT LeftArm
        {
          OFFSET 10.2827 -0.00338 0.322123
          CHANNELS 3 Zrotation Xrotation Yrotation
          JOINT LeftForeArm
          {
            OFFSET 32.7669 0.099144 -1.42434
            CHANNELS 3 Zrotation Xrotation Yrotation
            JOINT LeftHand
            {
              OFFSET 27.5643 0.085362 1.02216
              CHANNELS 3 Zrotation Xrotation Yrotation
              End Site
              {
                OFFSET 16.7443 -0.6 1.50291
              }
            }
          }
        }
      }
      JOINT RightShoulder
      {
        OFFSET -8.99 -0.362252 -0.22
        CHANNELS 3 Zrotation Xrotation Yrotation
        JOINT RightArm
        {
          OFFSET -10.2827 -0.00338 0.322123
          CHANNELS 3 Zrotation Xrotation Yrotation
          JOINT RightForeArm
          {
            OFFSET -32.8971 0.099144 -1.42434
            CHANNELS 3 Zrotation Xrotation Yrotation
            JOINT RightHand
            {
              OFFSET -27.4921 0.085362 1.02216
              CHANNELS 3 Zrotation Xrotation Yrotation
              End Site
              {
                OFFSET -16.6312 -0.6 1.50291
              }
            }
          }
        }
      }
    }
  }
  JOINT LeftUpLeg
  {
    OFFSET 8.9458 -8.66707 0.101652
    CHANNELS 3 Zrotation Xrotation Yrotation
    JOINT LeftLeg
    {
      OFFSET 0 -44.4227 1.3727
      CHANNELS 3 Zrotation Xrotation Yrotation
      JOINT LeftFoot
      {
        OFFSET -0.253549 -42.0924 -1.46059
        CHANNELS 3 Zrotation Xrotation Yrotation
        JOINT LeftToes
        {
          OFFSET -0.04 -4.41509 8.4991
          CHANNELS 3 Zrotation Xrotation Yrotation
          End Site
          {
            OFFSET 0.08 -0.047448 9.77979
          }
        }
      }
    }
  }
}
MOTION
Frames:	12
Frame Time:	0.0166667
-170.961 95.0718 -204.383 -3.74948 -5.60934 -66.1757 -24.1995 -4.61423 -5.3836 -16.0222 38.8344 41.1493 13.7557 0.831995 -0.0627324 0.0462048 0.000533403 0.662642 6.126 17.7455 12.3492 0.0230835 -0.0118965 -0.0155504 -34.4202 15.7866 26.2506 2.78299e-015 -7.95139e-016 6.36111e-015 152.985 -72.4878 163.356 -86.5508 55.7966 -54.6613 4.78052 19.3638 -1.18487 29.6073 -2.67909 3.71368 58.5501 -22.6274 66.3633 48.1278 54.4289 79.3693 -5.54852 17.2425 1.92653 20.7705 -29.0304 4.11715 -8.96516 28.9748 19.1719 27.2043 -2.93162 1.71312 -1.18447e-009 1.5602e-007 -4.87132e-009 
-170.358 94.7377 -207.034 -3.14856 -5.13053 -65.3688 -23.8409 -0.627126 -1.02731 -7.74007 35.4526 28.2562 11.0152 -0.0630077 0.00673464 0.0462048 0.000533403 0.662642 6.07944 17.5055 12.7156 0.0230836 -0.0118965 -0.0152736 -34.5939 14.4009 26.0808 3.97569e-016 3.97569e-015 1.27222e-014 152.944 -72.421 164.634 -87.1635 56.0693 -54.4612 5.88589 19.1078 0.0141268 28.8369 -2.44802 2.86289 60.8243 -21.7294 68.0507 48.6712 54.691 78.3852 -5.80241 18.8602 0.817879 21.2983 -29.7612 2.78251 -8.24666 27.9721 16.1708 28.4038 -2.78836 1.7743 -1.18447e-009 1.5602e-007 -4.87132e-009 
-169.928 94.4307 -209.612 -2.75111 -4.68173 -64.6821 -23.5823 2.77573 2.99787 0.179625 32.4607 15.8966 6.52284 -0.920047 -0.0120706 0.0462048 0.000533403 0.662642 6.15676 17.3225 12.875 0.0230836 -0.0118965 -0.0152736 -34.6984 13.2087 26.1896 -3.18055e-015 1.59028e-015 3.18055e-015 152.513 -72.3165 165.693 -88.266 56.3823 -53.8391 5.33511 18.5317 -1.55241 28.2646 -2.02792 2.08137 62.7468 -20.8498 69.565 49.2203 54.9369 77.373 -5.90489 18.285 0.754756 21.3991 -30.2606 1.5279 -6.53381 27.4685 10.9912 28.6124 -2.75188 1.77889 -1.18447e-009 1.5602e-007 -4.87131e-009 
-169.624 94.1005 -212.052 -2.55428 -4.28422 -64.0838 -23.7288 5.60305 6.81184 7.58454 29.1535 5.36146 4.75859 -1.36176 -0.065385 0.0462048 0.000533403 0.662642 6.34113 17.1949 12.8125 0.0230836 -0.0118965 -0.0152736 -34.7635 12.2661 26.5922 7.95139e-016 3.97569e-016 -0 152.007 -72.2095 166.736 -89.6694 56.6461 -52.8521 6.02444 18.3916 -1.03653 27.7106 -1.4839 1.34969 64.5287 -19.9604 70.8685 49.7265 55.1192 76.3561 -6.23042 19.2988 0.0708687 21.2417 -30.5399 0.363443 -4.89166 26.5921 6.42433 28.73 -2.76794 1.74784 -1.18447e-009 1.5602e-007 -4.87132e-009 
-169.405 93.8 -214.249 -2.54377 -3.95031 -63.5415 -23.9772 7.8943 10.2988 13.9865 25.7246 -2.58856 1.70476 -1.77562 -0.104965 0.0462048 0.000533403 0.662642 6.63967 17.0912 12.5283 0.0230836 -0.0118965 -0.0152736 -34.8108 11.6436 27.2776 7.95139e-016 3.97569e-016 -6.36111e-015 151.654 -72.1063 167.859 -91.2855 56.8182 -51.5925 5.58824 18.2522 -2.20642 27.3456 -0.963296 0.804068 65.9674 -19.1222 71.7535 50.1422 55.241 75.4112 -6.4743 19.0258 0.199602 20.4298 -30.7095 0.188902 -2.27786 25.7859 1.22838 28.5599 -2.76301 1.69229 -1.18446e-009 1.5602e-007 -4.87131e-009 
-169.155 93.6481 -216.261 -2.68171 -3.68558 -63.0485 -24.547 9.7797 13.5608 18.6046 20.6099 -7.9527 0.817642 -2.23418 -0.0179763 0.0462048 0.000533403 0.662642 6.99832 16.9954 12.0623 0.0230836 -0.0118965 -0.0152736 -34.7708 11.2929 28.1764 0 1.78906e-015 -0 151.677 -72.1064 169.215 -92.797 56.8755 -50.2718 5.89756 18.2813 -1.88596 26.9612 -0.31993 0.39274 67.3207 -18.3522 72.3928 50.4306 55.3133 74.5479 -6.57254 19.5657 -0.30632 19.6705 -30.5158 0.127462 0.0765278 24.783 -3.14315 28.1296 -2.69793 1.5956 -1.18447e-009 1.5602e-007 -4.87131e-009 
-168.955 93.5162 -218.035 -2.92887 -3.46842 -62.6324 -24.2364 10.6517 15.7969 20.9582 17.877 -10.3279 -0.348053 -2.63138 0.0347619 0.0462048 0.000533403 0.662642 7.38053 16.8856 11.4926 0.0230836 -0.0118965 -0.0152736 -34.6549 11.2252 29.2338 1.59028e-015 1.19271e-015 -3.18055e-015 152.083 -72.2201 170.795 -94.0785 56.8513 -49.0224 5.57629 18.3936 -2.51512 26.5884 0.378882 0.186478 68.4868 -17.7345 72.7509 50.5938 55.3439 73.76 -6.47985 19.4917 -0.369066 19.1653 -30.2683 0.332434 1.29249 25.0534 -5.07983 28.2388 -2.55215 1.5215 -1.18445e-009 1.5602e-007 -4.87131e-009 
-168.787 93.5355 -219.563 -3.2492 -3.286 -62.3127 -23.1652 10.9052 17.044 21.0592 16.9315 -10.4054 1.1512 -2.82083 0.113336 0.0462048 0.000533403 0.662642 7.74929 16.7497 10.8749 0.0230836 -0.0118965 -0.0152736 -34.1095 12.893 30.7439 -5.96354e-016 -2.78299e-015 -0 152.712 -72.4271 172.413 -94.943 56.7701 -48.0447 5.79635 18.7938 -2.28939 26.1571 1.09664 0.0907129 69.5035 -17.1789 72.9622 50.6231 55.3161 73.0449 -6.22615 19.979 -0.68011 18.7306 -30.115 1.83918 2.44134 25.9237 -6.17814 28.6394 -2.34923 1.46644 -1.18446e-009 1.5602e-007 -4.87131e-009 
-168.668 93.7119 -220.849 -3.61515 -3.13311 -62.0896 -21.3945 10.6362 17.3121 19.5646 17.5342 -9.05409 3.03769 -2.84552 0.182531 0.0462048 0.000533403 0.662642 8.07955 16.579 10.2465 0.0230836 -0.0118965 -0.0152736 -33.5948 16.1865 32.506 -3.97569e-016 1.19271e-015 -0 153.343 -72.6487 173.872 -95.4901 56.6645 -47.3032 5.63511 19.0815 -2.57192 25.597 1.8189 0.138778 70.399 -16.7181 73.0501 50.5341 55.2429 72.4265 -5.92651 19.9542 -0.667665 18.3961 -30.0696 4.54872 3.68089 27.0865 -6.8207 29.2125 -2.14077 1.41571 -1.18447e-009 1.5602e-007 -4.87131e-009 
-168.613 93.9872 -221.936 -4.00836 -2.99317 -61.9581 -19.1722 9.85082 16.6449 17.612 19.4028 -7.67556 3.33435 -2.65979 0.142684 0.0462048 0.000533403 0.662642 8.37144 16.3681 9.63087 0.0230836 -0.0118965 -0.0152736 -33.2883 19.2927 34.2588 -2.38542e-015 1.59028e-015 -0 153.761 -72.8358 174.963 -95.7653 56.5645 -46.8305 5.79352 19.5713 -2.4662 24.9275 2.46455 0.210873 71.162 -16.2364 73.0576 50.4044 55.1374 71.8745 -5.62001 20.2654 -0.716574 18.5061 -30.1512 7.3781 4.19254 28.5474 -6.10514 29.9618 -1.96564 1.40071 -1.18446e-009 1.5602e-007 -4.87131e-009 
-168.595 94.3575 -222.925 -4.3783 -2.82403 -61.895 -16.8356 8.63533 15.1109 15.0876 22.055 -5.80473 4.97584 -2.39748 0.157412 0.0462048 0.000533403 0.662642 8.63395 16.0744 9.04862 0.0230836 -0.0118965 -0.0152736 -33.1841 22.1801 35.9808 7.95139e-016 7.95139e-016 3.18055e-015 153.877 -72.9149 175.613 -95.939 56.4686 -46.485 5.70008 19.8201 -2.5356 24.1459 3.11813 0.447834 71.8162 -15.94 73.075 50.2835 54.9981 71.3622 -5.31957 20.2848 -0.678806 18.9781 -30.2948 10.2334 5.11169 29.0942 -6.09006 29.7283 -1.97732 1.36731 -1.18446e-009 1.5602e-007 -4.87131e-009 
-168.625 94.8137 -223.779 -4.70839 -2.62171 -61.8716 -14.9542 7.63738 13.7036 12.6757 24.4184 -3.98347 6.55018 -2.04458 0.148928 0.0462048 0.000533403 0.662642 8.8514 15.7046 8.50243 0.0230836 -0.0118965 -0.0152736 -33.2513 24.7956 37.6506 -2.78299e-015 3.37934e-015 6.36111e-015 159.719 -70.7391 -177.681 -96.0208 56.376 -46.2357 5.792 20.2884 -2.38151 23.2878 3.77605 0.787536 72.3642 -15.7766 73.1688 50.187 54.8281 70.8738 -5.0575 20.4724 -0.642819 19.567 -30.2493 12.9654 6.09353 28.9304 -6.58716 28.8392 -2.14028 1.35756 -1.18447e-009 1.5602e-007 -4.87131e-009 
